<?xml version="1.0" ?>
<svg xmlns="http://www.w3.org/2000/svg" width="48" height="48" viewBox="0 0 1024 1024" fill="none">
  <path fill="#7C3AED" d="M512 128L160 416c-16 12-26 32-26 53v347c0 53 43 96 96 96h564c53 0 96-43 96-96V469c0-21-10-41-26-53L512 128z"/>
  <path fill="white" opacity="0.14" d="M512 170L202 410c-8 6-13 16-13 26v-1c0-14 6-27 17-36L512 154l306 245c11 9 17 22 17 36v1c0-10-5-20-13-26L512 170z"/>
  <path fill="white" d="M654 650c-40 70-126 126-220 126-66 0-114-22-142-50-28-28-40-67-36-111 6-73 64-147 149-179 84-32 170-5 210 47 27 35 30 83 6 135l-8 17 2-1c29-14 68-43 100-92 9-14 28-18 42-9 14 9 18 28 9 42 -34 53-75 87-112 106z"/>
  <path fill="#7C3AED" d="M475 739c-10 0-19-7-21-18-11-59 18-133 70-192 47-54 110-93 172-105 12-2 23 6 26 17 2 12-6 23-18 25 -48 9-100 42-140 88-44 51-67 113-58 160 2 12-6 23-17 25h-4z"/>
  <rect x="256" y="704" width="512" height="96" rx="48" fill="#7C3AED" opacity="0.9"/>
</svg>
